<svg xmlns="http://www.w3.org/2000/svg" xmlns:xlink="http://www.w3.org/1999/xlink" width="10" height="16" version="1.1" viewBox="0 0 10 16"><title>DCB42994-4527-45DE-993D-2CD115795073</title><desc>Created with sketchtool.</desc><g id="Page-1" fill="none" fill-rule="evenodd" stroke="none" stroke-width="1"><g id="Config-Integration" fill="#54BEF4" transform="translate(-740.000000, -690.000000)"><g id="Content" transform="translate(390.000000, 218.000000)"><g id="Settings" transform="translate(90.000000, 228.000000)"><g id="Notifications" transform="translate(3.000000, 164.000000)"><g id="Column-Copy" transform="translate(233.000000, 28.000000)"><g id="Medium/attach" transform="translate(17.000000, 48.000000)"><path id="icon-shape" d="M13,14 C13,14.5522847 12.5522847,15 12,15 C11.4477153,15 11,14.5522847 11,14 L11,7 C11,6.44828475 10.5517153,6 10,6 C9.44828475,6 9,6.44828475 9,7 L9,15 C9,16.6567153 10.3432847,18 12,18 C13.6567153,18 15,16.6567153 15,15 L15,9 C15,8.44771525 15.4477153,8 16,8 C16.5522847,8 17,8.44771525 17,9 L17,15 C17,17.7612847 14.7612847,20 12,20 C9.23871525,20 7,17.7612847 7,15 L7,7 C7,5.34371525 8.34371525,4 10,4 C11.6562847,4 13,5.34371525 13,7 L13,14 Z"/></g></g></g></g></g></g></g></svg>