<svg xmlns="http://www.w3.org/2000/svg" width="16" height="16"><g><title>background</title><rect id="canvas_background" width="3" height="3" x="-1" y="-1" fill="none"/></g><g><title>Layer 1</title><rect id="svg_2" width="6.438" height="10.25" x="5.219" y="3.465" fill="#fff" stroke="null" stroke-opacity="null" stroke-width="null"/><path id="svg_1" fill="#cece50" stroke="null" d="m15.703702,8.037036c0,4.296501 -3.482531,7.777777 -7.777777,7.777777s-7.777777,-3.481277 -7.777777,-7.777777c0,-4.293992 3.482531,-7.777777 7.777777,-7.777777s7.777777,3.483786 7.777777,7.777777zm-7.777777,1.5681c-0.796752,0 -1.442652,0.6459 -1.442652,1.442652s0.6459,1.442652 1.442652,1.442652s1.442652,-0.6459 1.442652,-1.442652s-0.6459,-1.442652 -1.442652,-1.442652zm-1.369673,-5.185582l0.232643,4.265233c0.010883,0.199588 0.175909,0.355833 0.37578,0.355833l1.5225,0c0.19987,0 0.364897,-0.156246 0.37578,-0.355833l0.232643,-4.265233c0.011761,-0.215582 -0.159884,-0.396855 -0.37578,-0.396855l-1.987818,0c-0.215896,0 -0.387509,0.181272 -0.375748,0.396855z"/></g></svg>